<svg width="19" height="19" viewBox="0 0 19 19" fill="none" xmlns="http://www.w3.org/2000/svg">
<path d="M9.5 7.20711L5.85355 10.8536C5.65829 11.0488 5.34171 11.0488 5.14645 10.8536C4.95118 10.6583 4.95118 10.3417 5.14645 10.1464L9.14645 6.14645C9.34171 5.95118 9.65829 5.95118 9.85355 6.14645L13.8536 10.1464C14.0488 10.3417 14.0488 10.6583 13.8536 10.8536C13.6583 11.0488 13.3417 11.0488 13.1464 10.8536L9.5 7.20711ZM18 9.5C18 4.80514 14.1949 1 9.5 1C4.80514 1 1 4.80514 1 9.5C1 14.1949 4.80514 18 9.5 18C14.1949 18 18 14.1949 18 9.5ZM19 9.5C19 14.7471 14.7471 19 9.5 19C4.25286 19 0 14.7471 0 9.5C0 4.25286 4.25286 0 9.5 0C14.7471 0 19 4.25286 19 9.5Z" fill="black"/>
</svg>
